<svg xmlns="http://www.w3.org/2000/svg" viewBox="0 0 64 64"><title>Artboard-14</title><g id="Lock_Website" data-name="Lock Website"><path d="M40.7471,60.7041c-.4971.1523-1.002.2959-1.53.416A29.4987,29.4987,0,0,1,33,61.97V50.0369a29.7576,29.7576,0,0,1,7.708,1.2595,1,1,0,0,0,.584-1.9131A31.7752,31.7752,0,0,0,33,48.0369V33H46.988c-.0111.7449-.03,1.507-.0671,2.3252a1,1,0,0,0,.9541,1.0439l.0459.001a1,1,0,0,0,.998-.9551c.0383-.8493.0578-1.6408.069-2.415H61.9736a30.4032,30.4032,0,0,1-.6416,5.3315,1,1,0,1,0,1.9551.417A32.34,32.34,0,0,0,64,32,31.9771,31.9771,0,0,0,11.9123,7.1155l-.008.0063A31.9884,31.9884,0,0,0,32,64a31.5868,31.5868,0,0,0,7.6807-.9351c.5547-.1254,1.1084-.2817,1.6523-.4487a1,1,0,1,0-.5859-1.9121Zm-15.6739.4609a28.3072,28.3072,0,0,1-4.8186-8.7637A29.6768,29.6768,0,0,1,31,50.042V61.9567A29.9851,29.9851,0,0,1,25.0732,61.165Zm-3.1992-.9281A29.8632,29.8632,0,0,1,14.0459,56a30.1985,30.1985,0,0,1,4.4051-2.75A34.1112,34.1112,0,0,0,21.874,60.2369ZM31,48.0218a32.0532,32.0532,0,0,0-11.3823,2.4849A62.5444,62.5444,0,0,1,17.016,33H31Zm-5.9077-45.21A29.9058,29.9058,0,0,1,31,2.0254V13.958a29.6768,29.6768,0,0,1-10.7454-2.3593A28.2679,28.2679,0,0,1,25.0923,2.8117ZM18.451,10.75a30.1893,30.1893,0,0,1-4.4177-2.76,29.9651,29.9651,0,0,1,7.841-4.2274A34.1066,34.1066,0,0,0,18.451,10.75ZM38.9091,2.8134a28.2718,28.2718,0,0,1,4.8363,8.7853A29.6768,29.6768,0,0,1,33,13.958V2.03A29.5275,29.5275,0,0,1,38.9091,2.8134Zm3.2238.9595a29.817,29.817,0,0,1,7.8489,4.206A30.1989,30.1989,0,0,1,45.549,10.75,34.1309,34.1309,0,0,0,42.1329,3.7729ZM31,15.9782V31H17.016a62.5444,62.5444,0,0,1,2.6017-17.5067A32.0532,32.0532,0,0,0,31,15.9782Zm2,0a32.0532,32.0532,0,0,0,11.3823-2.4849A62.5444,62.5444,0,0,1,46.984,31H33ZM61.9578,31H48.9837a64.2688,64.2688,0,0,0-2.7808-18.3375,32.0025,32.0025,0,0,0,5.3962-3.3773A29.904,29.904,0,0,1,61.9578,31ZM12.42,9.3a32.0054,32.0054,0,0,0,5.3775,3.3626A64.2688,64.2688,0,0,0,15.0163,31H2.0254A29.9346,29.9346,0,0,1,12.42,9.3ZM2.0277,33H15.0163a64.2688,64.2688,0,0,0,2.7808,18.3375,31.9947,31.9947,0,0,0-5.3852,3.3687A29.85,29.85,0,0,1,2.0277,33Z" style="fill:#19191c"/><path d="M61,45H60V42a6,6,0,0,0-12,0v3H47a3.0033,3.0033,0,0,0-3,3V61a3.0033,3.0033,0,0,0,3,3H61a3.0033,3.0033,0,0,0,3-3V48A3.0033,3.0033,0,0,0,61,45ZM50,42a4,4,0,0,1,8,0v3H50ZM62,61a1.0009,1.0009,0,0,1-1,1H47a1.0009,1.0009,0,0,1-1-1V48a1.0009,1.0009,0,0,1,1-1H61a1.0009,1.0009,0,0,1,1,1Z" style="fill:#19191c"/><path d="M54,50a2.9926,2.9926,0,0,0-1,5.8157V58a1,1,0,0,0,2,0V55.8157A2.9926,2.9926,0,0,0,54,50Zm0,4a1,1,0,1,1,1-1A1.0009,1.0009,0,0,1,54,54Z" style="fill:#19191c"/></g></svg>